<svg xmlns="http://www.w3.org/2000/svg" viewBox="0 0 128 128" width="128" height="128" role="img" aria-label="Adjent ring idle">
  <title>Adjent ring idle</title>
  <g id="gauge-track"><path d="M67.49 14.12 A50 50 0 0 1 90.5 21.6" fill="none" stroke="#8693A0" stroke-width="16" stroke-linecap="butt"/><path d="M96.14 25.7 A50 50 0 0 1 110.36 45.27" fill="none" stroke="#8693A0" stroke-width="16" stroke-linecap="butt"/><path d="M112.51 51.9 A50 50 0 0 1 112.51 76.1" fill="none" stroke="#8693A0" stroke-width="16" stroke-linecap="butt"/><path d="M110.36 82.73 A50 50 0 0 1 96.14 102.3" fill="none" stroke="#8693A0" stroke-width="16" stroke-linecap="butt"/><path d="M90.5 106.4 A50 50 0 0 1 67.49 113.88" fill="none" stroke="#8693A0" stroke-width="16" stroke-linecap="butt"/><path d="M60.51 113.88 A50 50 0 0 1 37.5 106.4" fill="none" stroke="#8693A0" stroke-width="16" stroke-linecap="butt"/><path d="M31.86 102.3 A50 50 0 0 1 17.64 82.73" fill="none" stroke="#8693A0" stroke-width="16" stroke-linecap="butt"/><path d="M15.49 76.1 A50 50 0 0 1 15.49 51.9" fill="none" stroke="#8693A0" stroke-width="16" stroke-linecap="butt"/><path d="M17.64 45.27 A50 50 0 0 1 31.86 25.7" fill="none" stroke="#8693A0" stroke-width="16" stroke-linecap="butt"/><path d="M37.5 21.6 A50 50 0 0 1 60.51 14.12" fill="none" stroke="#8693A0" stroke-width="16" stroke-linecap="butt"/></g>
  <g id="face"><circle cx="64" cy="64" r="34" fill="#131A22"/></g>
  <g id="needle"><path d="M82.47 40.36 L58.48 59.69 L69.52 68.31 Z" fill="#131A22" stroke="#131A22" stroke-width="2.5" stroke-linejoin="round"/><circle cx="64" cy="64" r="5" fill="#131A22"/></g>
</svg>
